<svg width="512" height="512" viewBox="0 0 512 512" fill="none" xmlns="http://www.w3.org/2000/svg">
  <defs>
    <linearGradient id="g1" x1="96" y1="96" x2="416" y2="416" gradientUnits="userSpaceOnUse">
      <stop stop-color="#16E0B3"/>
      <stop offset="1" stop-color="#2F6BFF"/>
    </linearGradient>
    <filter id="shadow" x="0" y="0" width="512" height="512" filterUnits="userSpaceOnUse">
      <feDropShadow dx="0" dy="18" stdDeviation="18" flood-color="#0B1020" flood-opacity="0.18"/>
    </filter>
  </defs>
  <rect x="36" y="36" width="440" height="440" rx="116" fill="#0F172A"/>
  <g filter="url(#shadow)">
    <path d="M344 146C315 117 272 103 229 109C173 117 131 155 128 203C125 250 157 282 215 294L286 309C321 316 338 330 337 353C336 379 308 401 271 405C233 409 197 398 172 373" stroke="url(#g1)" stroke-width="44" stroke-linecap="round"/>
    <path d="M168 366C197 395 240 409 283 403C339 395 381 357 384 309C387 262 355 230 297 218L226 203C191 196 174 182 175 159C176 133 204 111 241 107C279 103 315 114 340 139" stroke="url(#g1)" stroke-width="44" stroke-linecap="round" opacity="0.92"/>
  </g>
</svg>